<?xml version="1.0" standalone="no"?><!DOCTYPE svg PUBLIC "-//W3C//DTD SVG 1.1//EN" "http://www.w3.org/Graphics/SVG/1.1/DTD/svg11.dtd"><svg t="1784729102417" class="icon" viewBox="0 0 1024 1024" version="1.1" xmlns="http://www.w3.org/2000/svg" p-id="11894" xmlns:xlink="http://www.w3.org/1999/xlink" width="48" height="48"><path d="M279.145026 345.586872c61.138051-104.211692 141.574564-202.541949 207.661948-308.07959 31.37641-50.018462 42.141538-50.32041 74.331898 0.984615 65.916718 104.841846 146.06441 203.11959 207.031795 306.924308 30.116103 51.528205 50.727385 102.990769 50.727384 155.214769 0 123.037538-65.234051 229.612308-160.571077 282.230154a277.792821 277.792821 0 0 1-271.346871-1.220923c-94.194872-52.959179-158.444308-158.903795-158.444308-281.009231-0.052513-52.224 20.558769-103.634051 50.609231-155.044102z" p-id="11895" fill="#121212"></path><path d="M1003.021128 860.934564c-20.663795 56.241231-92.238769 92.514462-144.515282 112.206769-90.387692 33.857641-211.403487 51.291897-334.375384 50.845539-123.037538 0.459487-244.118974-16.987897-334.506667-50.845539-52.329026-19.692308-123.720205-56.018051-144.449641-112.206769-34.605949-94.260513 94.247385-159.021949 165.586051-184.97641a370.084103 370.084103 0 0 0 39.542154 63.435487c-3.006359 2.021744-5.947077 4.161641-8.795897 6.393436-43.060513 32.466051-48.482462 68.923077-4.726154 103.804718 68.621128 54.285128 202.712615 68.043487 287.350154 68.161641 84.519385-0.105026 218.663385-13.810872 287.232-68.161641 43.756308-34.829128 38.334359-71.286154-4.726154-103.804718a180.118974 180.118974 0 0 0-8.861539-6.393436 370.386051 370.386051 0 0 0 39.607795-63.448615c71.338667 25.96759 200.178872 90.742154 165.638564 184.97641z" p-id="11896" fill="#121212"></path></svg>