<?xml version="1.0" standalone="no"?><!DOCTYPE svg PUBLIC "-//W3C//DTD SVG 1.1//EN" "http://www.w3.org/Graphics/SVG/1.1/DTD/svg11.dtd"><svg t="1784729177125" class="icon" viewBox="0 0 1024 1024" version="1.1" xmlns="http://www.w3.org/2000/svg" p-id="14681" xmlns:xlink="http://www.w3.org/1999/xlink" width="48" height="48"><path d="M0 0m51.2 0l716.8 0q51.2 0 51.2 51.2l0 716.8q0 51.2-51.2 51.2l-716.8 0q-51.2 0-51.2-51.2l0-716.8q0-51.2 51.2-51.2Z" fill="#121212" p-id="14682"></path><path d="M972.8 102.4a51.2 51.2 0 0 0-51.2 51.2v768H153.6a51.2 51.2 0 0 0 0 102.4h768a102.4 102.4 0 0 0 102.4-102.4V153.6a51.2 51.2 0 0 0-51.2-51.2z" fill="#121212" p-id="14683"></path></svg>